<?xml version="1.0" encoding="UTF-8" standalone="no"?>
<svg
   xmlns:dc="http://purl.org/dc/elements/1.1/"
   xmlns:cc="http://creativecommons.org/ns#"
   xmlns:rdf="http://www.w3.org/1999/02/22-rdf-syntax-ns#"
   xmlns:svg="http://www.w3.org/2000/svg"
   xmlns="http://www.w3.org/2000/svg"
   xmlns:sodipodi="http://sodipodi.sourceforge.net/DTD/sodipodi-0.dtd"
   xmlns:inkscape="http://www.inkscape.org/namespaces/inkscape"
   inkscape:version="1.0 (4035a4fb49, 2020-05-01)"
   sodipodi:docname="navigation-svgrepo-com.svg"
   xml:space="preserve"
   style="enable-background:new 0 0 459 459;"
   viewBox="0 0 459 459"
   y="0px"
   x="0px"
   id="Layer_1"
   version="1.1"><metadata
   id="metadata43"><rdf:RDF><cc:Work
       rdf:about=""><dc:format>image/svg+xml</dc:format><dc:type
         rdf:resource="http://purl.org/dc/dcmitype/StillImage" /></cc:Work></rdf:RDF></metadata><defs
   id="defs41" /><sodipodi:namedview
   inkscape:current-layer="Layer_1"
   inkscape:window-maximized="1"
   inkscape:window-y="-9"
   inkscape:window-x="-9"
   inkscape:cy="229.5"
   inkscape:cx="229.5"
   inkscape:zoom="1.9172113"
   showgrid="false"
   id="namedview39"
   inkscape:window-height="1284"
   inkscape:window-width="2400"
   inkscape:pageshadow="2"
   inkscape:pageopacity="0"
   guidetolerance="10"
   gridtolerance="10"
   objecttolerance="10"
   borderopacity="1"
   bordercolor="#666666"
   pagecolor="#ffffff" />
<g
   style="fill:#bb9000;fill-opacity:1"
   id="g6">
	<g
   style="fill:#bb9000;fill-opacity:1"
   id="g4">
		<path
   style="fill:#bb9000;fill-opacity:1"
   id="path2"
   d="M229.5,0C102.751,0,0,102.751,0,229.5S102.751,459,229.5,459S459,356.249,459,229.5S356.249,0,229.5,0z M307.293,152.195    l-83.164,189.526c-1.515,3.452-4.995,5.619-8.761,5.454c-3.766-0.165-7.044-2.626-8.252-6.197l-25.779-76.21l-74.52-24.522    c-3.594-1.183-6.086-4.459-6.267-8.238c-0.181-3.779,1.988-7.279,5.452-8.799l189.259-83.046    c3.446-1.512,7.466-0.756,10.127,1.905C308.049,144.729,308.805,148.749,307.293,152.195z" />
	</g>
</g>
<g
   id="g8">
</g>
<g
   id="g10">
</g>
<g
   id="g12">
</g>
<g
   id="g14">
</g>
<g
   id="g16">
</g>
<g
   id="g18">
</g>
<g
   id="g20">
</g>
<g
   id="g22">
</g>
<g
   id="g24">
</g>
<g
   id="g26">
</g>
<g
   id="g28">
</g>
<g
   id="g30">
</g>
<g
   id="g32">
</g>
<g
   id="g34">
</g>
<g
   id="g36">
</g>
</svg>
