<?xml version="1.0" encoding="UTF-8" standalone="no"?>
<svg
   xmlns:dc="http://purl.org/dc/elements/1.1/"
   xmlns:cc="http://creativecommons.org/ns#"
   xmlns:rdf="http://www.w3.org/1999/02/22-rdf-syntax-ns#"
   xmlns:svg="http://www.w3.org/2000/svg"
   xmlns="http://www.w3.org/2000/svg"
   xmlns:sodipodi="http://sodipodi.sourceforge.net/DTD/sodipodi-0.dtd"
   xmlns:inkscape="http://www.inkscape.org/namespaces/inkscape"
   inkscape:version="1.0 (4035a4fb49, 2020-05-01)"
   sodipodi:docname="user-svgrepo-com.svg"
   xml:space="preserve"
   style="enable-background:new 0 0 459 459;"
   viewBox="0 0 459 459"
   y="0px"
   x="0px"
   id="Layer_1"
   version="1.1"><metadata
   id="metadata43"><rdf:RDF><cc:Work
       rdf:about=""><dc:format>image/svg+xml</dc:format><dc:type
         rdf:resource="http://purl.org/dc/dcmitype/StillImage" /></cc:Work></rdf:RDF></metadata><defs
   id="defs41" /><sodipodi:namedview
   inkscape:current-layer="Layer_1"
   inkscape:window-maximized="1"
   inkscape:window-y="-9"
   inkscape:window-x="-9"
   inkscape:cy="229.5"
   inkscape:cx="229.5"
   inkscape:zoom="1.9172113"
   showgrid="false"
   id="namedview39"
   inkscape:window-height="1284"
   inkscape:window-width="2400"
   inkscape:pageshadow="2"
   inkscape:pageopacity="0"
   guidetolerance="10"
   gridtolerance="10"
   objecttolerance="10"
   borderopacity="1"
   bordercolor="#666666"
   pagecolor="#ffffff" />
<g
   style="fill:#d4a608;fill-opacity:1"
   id="g6">
	<g
   style="fill:#d4a608;fill-opacity:1"
   id="g4">
		<path
   style="fill:#d4a608;fill-opacity:1"
   id="path2"
   d="M229.5,0C102.53,0,0,102.845,0,229.5C0,356.301,102.719,459,229.5,459C356.851,459,459,355.815,459,229.5    C459,102.547,356.079,0,229.5,0z M347.601,364.67C314.887,393.338,273.4,409,229.5,409c-43.892,0-85.372-15.657-118.083-44.314    c-4.425-3.876-6.425-9.834-5.245-15.597c11.3-55.195,46.457-98.725,91.209-113.047C174.028,222.218,158,193.817,158,161    c0-46.392,32.012-84,71.5-84c39.488,0,71.5,37.608,71.5,84c0,32.812-16.023,61.209-39.369,75.035    c44.751,14.319,79.909,57.848,91.213,113.038C354.023,354.828,352.019,360.798,347.601,364.67z" />
	</g>
</g>
<g
   id="g8">
</g>
<g
   id="g10">
</g>
<g
   id="g12">
</g>
<g
   id="g14">
</g>
<g
   id="g16">
</g>
<g
   id="g18">
</g>
<g
   id="g20">
</g>
<g
   id="g22">
</g>
<g
   id="g24">
</g>
<g
   id="g26">
</g>
<g
   id="g28">
</g>
<g
   id="g30">
</g>
<g
   id="g32">
</g>
<g
   id="g34">
</g>
<g
   id="g36">
</g>
</svg>
