<?xml version="1.0" encoding="utf-8"?>
<svg shape-rendering="geometricPrecision" text-rendering="geometricPrecision" image-rendering="optimizeQuality" fill-rule="evenodd" clip-rule="evenodd" width="4606" height="6134" style="" xmlns="http://www.w3.org/2000/svg" xmlns:bx="https://boxy-svg.com">
  <defs>
    <bx:grid x="0" y="0" width="100" height="98.555"/>
  </defs>
  <g class="currentLayer" style="" transform="matrix(1, 0, 0, 1, -5131.82959, -694.985352)">
    <title>Layer 1</title>
    <path d="M 8552.314 6001.045 C 8273.314 6307.045 7948.314 6581.045 7583.314 6803.045 C 7538.314 6836.045 7477.314 6840.045 7427.314 6808.045 C 6888.314 6465.045 6435.314 6053.045 6079.314 5605.045 C 5588.314 4989.045 5279.314 4306.045 5173.314 3648.045 C 5065.314 2981.045 5166.314 2339.045 5498.314 1817.045 C 5629.314 1611.045 5796.314 1423.045 6000.314 1261.045 C 6468.314 888.045 7003.314 691.045 7536.314 695.045 C 8049.314 699.045 8556.314 890.045 8994.314 1290.045 C 9148.314 1430.045 9277.314 1590.045 9383.314 1764.045 C 9740.314 2352.045 9817.314 3102.045 9660.314 3862.045 C 9505.314 4613.045 9121.314 5376.045 8552.314 6000.045 Z M 7434.314 1881.045 C 8067.314 1881.045 8580.314 2394.045 8580.314 3027.045 C 8580.314 3660.045 8067.314 4173.045 7434.314 4173.045 C 6801.314 4173.045 6288.314 3660.045 6288.314 3027.045 C 6288.314 2394.045 6801.314 1881.045 7434.314 1881.045 Z" id="path-1" class="selected" fill-opacity="1" style="filter: none; fill: rgb(111, 0, 0);"/>
    <path d="M 8478.824 5790.865 C 8222.212 6072.311 7923.291 6324.325 7587.579 6528.511 C 7546.19 6558.863 7490.085 6562.542 7444.097 6533.11 C 6948.347 6217.633 6531.697 5838.692 6204.263 5426.641 C 5752.662 4860.07 5468.457 4231.875 5370.962 3626.674 C 5271.628 3013.196 5364.524 2422.711 5669.884 1942.598 C 5790.372 1753.128 5943.971 1580.213 6131.602 1431.212 C 6562.049 1088.142 7054.119 906.95 7544.35 910.629 C 8016.186 914.308 8482.503 1089.982 8885.357 1457.885 C 9027 1586.651 9145.649 1733.813 9243.143 1893.85 C 9571.497 2434.668 9642.318 3124.487 9497.916 3823.503 C 9355.354 4514.241 9002.167 5216.016 8478.824 5789.945 Z M 7450.535 2001.462 C 8032.742 2001.462 8504.578 2473.298 8504.578 3055.505 C 8504.578 3637.712 8032.742 4109.547 7450.535 4109.547 C 6868.328 4109.547 6396.492 3637.712 6396.492 3055.505 C 6396.492 2473.298 6868.328 2001.462 7450.535 2001.462 Z" id="svg_1" class="selected" fill-opacity="1" style="fill: rgb(179, 43, 16);"/>
  </g>
</svg>